# xmcd
#
# Track frame offsets:
#	150
#	17263
#	35335
#	51548
#	65164
#	81654
#	97917
#	112222
#	127808
#	143804
#	159669
#	175222
#	191147
#
# Disc length: 2749 seconds
#
# Revision: 1
# Processed by: cddbd v1.5.2PL0 Copyright (c) Steve Scherf et al.
# Submitted via: EZCDAudioConverter 1.3.4.1
#
DISCID=b80abb0d
DTITLE=Buddy Jewell - Country Enough
DYEAR=2008
DGENRE=country
TTITLE0=Country Enough
TTITLE1=The Southern Side of Heaven
TTITLE2=The Wheels Turn Slow (The Caterpillar Song)
TTITLE3=Need A Little Country
TTITLE4=This Aint Mexico!
TTITLE5=What This Country's Comin' To
TTITLE6=Second Chance Of A Lifetime
TTITLE7=The Ones I Love The Most
TTITLE8=That Summer Girl
TTITLE9=She Loves This Town
TTITLE10=No Grease, No Gravy
TTITLE11=Hillbilly Water
TTITLE12=Leavin' Louisiana (for the last time)
EXTD=
EXTT0=
EXTT1=
EXTT2=
EXTT3=
EXTT4=
EXTT5=
EXTT6=
EXTT7=
EXTT8=
EXTT9=
EXTT10=
EXTT11=
EXTT12=
PLAYORDER=
